<?xml version="1.0" encoding="UTF-8" standalone="no"?>
<!DOCTYPE svg PUBLIC "-//W3C//DTD SVG 1.1//EN" "http://www.w3.org/Graphics/SVG/1.1/DTD/svg11.dtd">
<svg version="1.1" xmlns="http://www.w3.org/2000/svg" xmlns:xl="http://www.w3.org/1999/xlink" xmlns:dc="http://purl.org/dc/elements/1.1/" viewBox="418.458 174.42285 129.5 135.22461" width="129.5" height="135.22461">
  <defs/>
  <g id="Canvas_1" fill-opacity="1" stroke-dasharray="none" fill="none" stroke="none" stroke-opacity="1">
    <title>Canvas 1</title>
    <g id="Canvas_1_Layer_1">
      <title>Layer 1</title>
      <g id="Graphic_27">
        <path d="M 543.958 191.96387 L 543.958 299.64746 C 543.958 302.96117 541.2717 305.64746 537.958 305.64746 L 428.458 305.64746 C 425.1443 305.64746 422.458 302.96117 422.458 299.64746 C 422.458 299.64746 422.458 299.64746 422.458 299.64746 L 422.458 191.96387 C 422.458 188.65016 425.1443 185.96387 428.458 185.96387 L 537.958 185.96387 C 541.2717 185.96387 543.958 188.65016 543.958 191.96387 Z" stroke="#68bc35" stroke-linecap="round" stroke-linejoin="round" stroke-width="8"/>
      </g>
      <g id="Graphic_28">
        <path d="M 526.76875 183.4836 L 526.76875 201.44063 C 526.76875 206.44474 522.7121 210.50137 517.708 210.50137 L 517.708 210.50137 C 512.7039 210.50137 508.64727 206.44474 508.64727 201.44063 L 508.64727 183.4836 C 508.64727 178.47948 512.7039 174.42285 517.708 174.42285 L 517.708 174.42285 C 522.7121 174.42285 526.76875 178.47948 526.76875 183.4836 Z" fill="#68bc36"/>
      </g>
      <g id="Graphic_29">
        <path d="M 492.26875 183.4836 L 492.26875 201.44063 C 492.26875 206.44474 488.2121 210.50137 483.208 210.50137 L 483.208 210.50137 C 478.2039 210.50137 474.14727 206.44474 474.14727 201.44063 L 474.14727 183.4836 C 474.14727 178.47948 478.2039 174.42285 483.208 174.42285 L 483.208 174.42285 C 488.2121 174.42285 492.26875 178.47948 492.26875 183.4836 Z" fill="#68bc36"/>
      </g>
      <g id="Graphic_30">
        <path d="M 457.76875 183.4836 L 457.76875 201.44063 C 457.76875 206.44474 453.7121 210.50137 448.708 210.50137 L 448.708 210.50137 C 443.7039 210.50137 439.64727 206.44474 439.64727 201.44063 L 439.64727 183.4836 C 439.64727 178.47948 443.7039 174.42285 448.708 174.42285 L 448.708 174.42285 C 453.7121 174.42285 457.76875 178.47948 457.76875 183.4836 Z" fill="#68bc36"/>
      </g>
      <g id="Graphic_24">
        <path d="M 446.10875 254.39468 L 466.31163 265.59146 C 467.32584 266.1594 468.0003 266.6665 468.33496 267.11276 C 468.66965 267.559 468.837 268.12696 468.837 268.81662 C 468.837 269.68883 468.5226 270.4444 467.8938 271.08336 C 467.265 271.7223 466.53476 272.04178 465.7031 272.04178 C 465.15544 272.04178 464.33394 271.73752 463.2386 271.129 L 433.14727 254.39468 L 463.2386 237.66037 C 464.33394 237.07213 465.1453 236.77802 465.6727 236.77802 C 466.5246 236.77802 467.265 237.09241 467.8938 237.72122 C 468.5226 238.35003 468.837 239.10053 468.837 239.97275 C 468.837 240.6624 468.66965 241.23035 468.33496 241.6766 C 468.0003 242.12286 467.32584 242.62995 466.31163 243.1979 Z" fill="#68bc36"/>
        <path d="M 446.10875 254.39468 L 466.31163 265.59146 C 467.32584 266.1594 468.0003 266.6665 468.33496 267.11276 C 468.66965 267.559 468.837 268.12696 468.837 268.81662 C 468.837 269.68883 468.5226 270.4444 467.8938 271.08336 C 467.265 271.7223 466.53476 272.04178 465.7031 272.04178 C 465.15544 272.04178 464.33394 271.73752 463.2386 271.129 L 433.14727 254.39468 L 463.2386 237.66037 C 464.33394 237.07213 465.1453 236.77802 465.6727 236.77802 C 466.5246 236.77802 467.265 237.09241 467.8938 237.72122 C 468.5226 238.35003 468.837 239.10053 468.837 239.97275 C 468.837 240.6624 468.66965 241.23035 468.33496 241.6766 C 468.0003 242.12286 467.32584 242.62995 466.31163 243.1979 Z" stroke="#68bc35" stroke-linecap="round" stroke-linejoin="round" stroke-width="3"/>
      </g>
      <g id="Graphic_26">
        <path d="M 520.80727 254.39468 L 500.6044 243.1979 C 499.5902 242.62995 498.91574 242.12286 498.58106 241.6766 C 498.24637 241.23035 498.079 240.6624 498.079 239.97275 C 498.079 239.10053 498.3934 238.35003 499.02223 237.72122 C 499.65104 237.09241 500.3914 236.77802 501.24333 236.77802 C 501.7707 236.77802 502.5821 237.07213 503.6774 237.66037 L 533.76875 254.39468 L 503.6774 271.129 C 502.5821 271.73752 501.7707 272.04178 501.24333 272.04178 C 500.3914 272.04178 499.65104 271.72738 499.02223 271.09857 C 498.3934 270.46976 498.079 269.70912 498.079 268.81662 C 498.079 268.12696 498.24637 267.559 498.58106 267.11276 C 498.91574 266.6665 499.5902 266.1594 500.6044 265.59146 Z" fill="#68bc36"/>
        <path d="M 520.80727 254.39468 L 500.6044 243.1979 C 499.5902 242.62995 498.91574 242.12286 498.58106 241.6766 C 498.24637 241.23035 498.079 240.6624 498.079 239.97275 C 498.079 239.10053 498.3934 238.35003 499.02223 237.72122 C 499.65104 237.09241 500.3914 236.77802 501.24333 236.77802 C 501.7707 236.77802 502.5821 237.07213 503.6774 237.66037 L 533.76875 254.39468 L 503.6774 271.129 C 502.5821 271.73752 501.7707 272.04178 501.24333 272.04178 C 500.3914 272.04178 499.65104 271.72738 499.02223 271.09857 C 498.3934 270.46976 498.079 269.70912 498.079 268.81662 C 498.079 268.12696 498.24637 267.559 498.58106 267.11276 C 498.91574 266.6665 499.5902 266.1594 500.6044 265.59146 Z" stroke="#68bc35" stroke-linecap="round" stroke-linejoin="round" stroke-width="3"/>
      </g>
      <g id="Line_31">
        <line x1="492.7178" y1="222.502" x2="474.14727" y2="287.32715" stroke="#68bc35" stroke-linecap="round" stroke-linejoin="round" stroke-width="9"/>
      </g>
    </g>
  </g>
</svg>
